<svg width="24" height="24" viewBox="0 0 24 24" fill="none" xmlns="http://www.w3.org/2000/svg">
<g clip-path="url(#clip0_1465_652)">
<path d="M23.4121 8.29208C25.0176 13.2379 23.2592 18.6543 19.0544 21.7064C14.8495 24.7645 9.15091 24.7645 4.94605 21.7064C0.741203 18.6543 -1.01719 13.2379 0.588299 8.29208C2.19379 3.34624 6.80442 0 12.0031 0C17.2019 0 21.8066 3.34624 23.4121 8.29208ZM12.0031 1.08209C7.2749 1.08209 3.08181 4.1284 1.61746 8.6273C0.153112 13.1262 1.7586 18.0544 5.58119 20.8361C9.40967 23.6177 14.5907 23.6177 18.4192 20.8361C22.2477 18.0544 23.8473 13.1262 22.3888 8.6273C20.9245 4.1284 16.7314 1.08209 12.0031 1.08209Z" fill="#C3E1E9" fill-opacity="0.5"/>
<path d="M15.1376 17.5369H8.86264C7.56296 17.5369 6.50439 16.5018 6.50439 15.2316V8.76844C6.50439 7.49816 7.56296 6.46312 8.86264 6.46312H15.1376C16.4373 6.46312 17.4958 7.49816 17.4958 8.76844V15.2316C17.4958 16.5018 16.4373 17.5369 15.1376 17.5369ZM8.86264 7.41583C8.08636 7.41583 7.4571 8.02156 7.4571 8.76844V15.2316C7.4571 15.9784 8.09224 16.5842 8.86264 16.5842H15.1376C15.9139 16.5842 16.5431 15.9784 16.5431 15.2316V8.76844C16.5431 8.02156 15.9139 7.41583 15.1376 7.41583H8.86264Z" fill="#C3E1E9" fill-opacity="0.5"/>
<path d="M12.0032 14.8728C10.4212 14.8728 9.1333 13.5849 9.1333 11.9971C9.1333 10.4151 10.4212 9.12129 12.0032 9.12129C13.5852 9.12129 14.879 10.4092 14.879 11.9971C14.8731 13.5849 13.5852 14.8728 12.0032 14.8728ZM12.0032 10.074C10.9446 10.074 10.0801 10.9385 10.0801 11.9971C10.0801 13.0556 10.9446 13.9201 12.0032 13.9201C13.0617 13.9201 13.9262 13.0556 13.9262 11.9971C13.9262 10.9385 13.0617 10.074 12.0032 10.074Z" fill="#C3E1E9" fill-opacity="0.5"/>
<path d="M15.7549 8.98015C15.7549 9.35065 15.455 9.65057 15.0845 9.65057C14.714 9.65057 14.4141 9.35065 14.4141 8.98015C14.4141 8.60965 14.714 8.30973 15.0845 8.30973C15.455 8.30973 15.7549 8.60965 15.7549 8.98015Z" fill="#C3E1E9" fill-opacity="0.5"/>
</g>
<defs>
<clipPath id="clip0_1465_652">
<rect width="24" height="24" fill="white"/>
</clipPath>
</defs>
</svg>
