<svg width="24" height="24" viewBox="0 0 24 24" fill="none" xmlns="http://www.w3.org/2000/svg">
<g clip-path="url(#clip0_1465_378)">
<path d="M23.4121 8.29208C25.0176 13.2379 23.2592 18.6543 19.0544 21.7064C14.8495 24.7645 9.15091 24.7645 4.94605 21.7064C0.741203 18.6543 -1.01719 13.2379 0.588299 8.29208C2.19379 3.34624 6.80442 0 12.0031 0C17.2019 0 21.8066 3.34624 23.4121 8.29208ZM12.0031 1.08209C7.2749 1.08209 3.08181 4.1284 1.61746 8.6273C0.153112 13.1262 1.7586 18.0544 5.58119 20.8361C9.40967 23.6177 14.5907 23.6177 18.4133 20.8361C22.2418 18.0544 23.8414 13.1262 22.383 8.6273C20.9245 4.1284 16.7314 1.08209 12.0031 1.08209Z" fill="#C3E1E9" fill-opacity="0.5"/>
<path d="M8.23936 10.1681H10.2153V16.5136H8.23936V10.1681ZM9.23323 7.01593C9.86249 7.01593 10.3741 7.52757 10.3741 8.15682C10.3741 8.78608 9.86249 9.3036 9.23323 9.3036C8.59809 9.3036 8.09234 8.79196 8.09234 8.15682C8.08645 7.52757 8.59809 7.01593 9.23323 7.01593Z" fill="#C3E1E9" fill-opacity="0.5"/>
<path d="M11.4561 10.1681H13.3497V11.0326H13.3732C13.6379 10.5327 14.2789 10.0093 15.2434 10.0093C17.237 10.0093 17.6075 11.3208 17.6075 13.0321V16.5136H15.6374V13.432C15.6374 12.6969 15.6197 11.7501 14.6141 11.7501C13.5849 11.7501 13.432 12.5499 13.432 13.3791V16.5195H11.4619V10.1681H11.4561Z" fill="#C3E1E9" fill-opacity="0.5"/>
</g>
<defs>
<clipPath id="clip0_1465_378">
<rect width="24" height="24" fill="white"/>
</clipPath>
</defs>
</svg>
