<svg width="24" height="24" viewBox="0 0 24 24" fill="none" xmlns="http://www.w3.org/2000/svg">
<g clip-path="url(#clip0_1465_373)">
<path d="M23.4119 8.29208C25.0174 13.2379 23.259 18.6543 19.0541 21.7064C14.8493 24.7645 9.15066 24.7645 4.94581 21.7064C0.740959 18.6543 -1.01743 13.2379 0.588055 8.29208C2.19354 3.34624 6.80418 0 12.0029 0C17.2016 0 21.8064 3.34624 23.4119 8.29208ZM12.0029 1.08209C7.27465 1.08209 3.08156 4.1284 1.61721 8.6273C0.152868 13.1262 1.75836 18.0544 5.58095 20.8361C9.40942 23.6177 14.5905 23.6177 18.419 20.8361C22.2475 18.0544 23.8471 13.1262 22.3886 8.6273C20.9242 4.1284 16.7312 1.08209 12.0029 1.08209Z" fill="#C3E1E9" fill-opacity="0.5"/>
<path fill-rule="evenodd" clip-rule="evenodd" d="M10.2211 14.6023C9.01549 14.5611 8.25685 13.6908 8.0569 12.9851C8.39211 13.0497 8.72732 13.038 9.05665 12.9556C9.06841 12.9556 9.0743 12.9498 9.09194 12.938C8.43916 12.7851 7.9334 12.4381 7.58054 11.8677C7.34531 11.4913 7.23357 11.0796 7.23945 10.6327C7.56878 10.8091 7.90987 10.9032 8.27449 10.915C7.78049 10.5621 7.45116 10.0975 7.3159 9.50355C7.18064 8.90958 7.26886 8.35089 7.5629 7.82161C8.82142 9.3036 10.4151 10.121 12.3617 10.2504C12.35 10.1563 12.3323 10.0799 12.3264 9.99755C12.2617 9.45062 12.3676 8.93898 12.6675 8.47439C13.038 7.89218 13.5673 7.53345 14.2436 7.42171C15.0258 7.29233 15.708 7.5158 16.2784 8.06861C16.3137 8.1039 16.349 8.11566 16.4019 8.1039C16.8783 7.99804 17.3311 7.82749 17.7545 7.58049C17.7663 7.57461 17.7722 7.56873 17.7839 7.56285C17.7839 7.56285 17.7898 7.56285 17.8016 7.56285C17.6193 8.1039 17.284 8.52144 16.8077 8.82725C17.2605 8.7802 17.6898 8.6567 18.1015 8.48027C18.1074 8.48615 18.1074 8.48615 18.1133 8.49203C18.025 8.60965 17.9368 8.72727 17.8427 8.83901C17.5957 9.14482 17.3135 9.40946 16.9959 9.64469C16.9665 9.66234 16.9547 9.67998 16.9547 9.71526C16.9665 10.0622 16.9547 10.4033 16.9136 10.7444C16.8253 11.4678 16.6195 12.1558 16.3137 12.8145C15.9961 13.4967 15.5786 14.1083 15.0552 14.6494C14.1672 15.5668 13.1027 16.1549 11.856 16.4313C11.4325 16.5254 10.9974 16.5724 10.5622 16.5842C9.22132 16.6253 7.98045 16.2901 6.83955 15.5844C6.82779 15.5785 6.81014 15.5668 6.78662 15.5491C7.59819 15.6373 8.36859 15.5315 9.11546 15.2257C9.50948 15.0845 9.87998 14.8728 10.2211 14.6023Z" fill="#C3E1E9" fill-opacity="0.5"/>
</g>
<defs>
<clipPath id="clip0_1465_373">
<rect width="24" height="24" fill="white"/>
</clipPath>
</defs>
</svg>
