<svg width="24" height="24" viewBox="0 0 24 24" fill="none" xmlns="http://www.w3.org/2000/svg">
<g clip-path="url(#clip0_1465_385)">
<path d="M23.4121 8.29208C25.0176 13.2379 23.2592 18.6543 19.0544 21.7064C14.8495 24.7645 9.15091 24.7645 4.94605 21.7064C0.741203 18.6543 -1.01719 13.2379 0.588299 8.29208C2.19379 3.34624 6.80442 0 12.0031 0C17.2019 0 21.8066 3.34624 23.4121 8.29208ZM12.0031 1.08209C7.2749 1.08209 3.08181 4.1284 1.61746 8.6273C0.153112 13.1262 1.7586 18.0544 5.58119 20.8361C9.40967 23.6177 14.5907 23.6177 18.4192 20.8361C22.2477 18.0544 23.8473 13.1262 22.3888 8.6273C20.9245 4.1284 16.7314 1.08209 12.0031 1.08209Z" fill="#C3E1E9" fill-opacity="0.5"/>
<path fill-rule="evenodd" clip-rule="evenodd" d="M7.95694 15.3609C7.57468 15.2374 7.31592 14.9846 7.17477 14.6023C6.83368 13.6731 6.73371 9.77996 7.38649 9.01544C7.60996 8.7508 7.89813 8.59789 8.23922 8.56261C9.99761 8.37442 15.4198 8.39794 16.0432 8.6273C16.4078 8.75668 16.6666 8.99779 16.8136 9.36241C17.1841 10.3269 17.1958 13.826 16.7665 14.7493C16.6489 15.0022 16.4607 15.1786 16.2137 15.3021C15.561 15.6491 8.82143 15.6432 7.95694 15.3609ZM10.7504 13.5379C11.8031 12.9909 12.8499 12.4499 13.9143 11.8971C12.8557 11.3443 11.8089 10.7974 10.7504 10.2445C10.7504 11.3443 10.7504 12.4322 10.7504 13.5379Z" fill="#C3E1E9" fill-opacity="0.5"/>
</g>
<defs>
<clipPath id="clip0_1465_385">
<rect width="24" height="24" fill="white"/>
</clipPath>
</defs>
</svg>
